<?xml version="1.0" encoding="UTF-8"?>
<!DOCTYPE svg PUBLIC "-//W3C//DTD SVG 1.1//EN" "http://www.w3.org/Graphics/SVG/1.1/DTD/svg11.dtd">
<svg xmlns="http://www.w3.org/2000/svg" version="1.1" width="512px" height="512px" style="shape-rendering:geometricPrecision; text-rendering:geometricPrecision; image-rendering:optimizeQuality; fill-rule:evenodd; clip-rule:evenodd" xmlns:xlink="http://www.w3.org/1999/xlink">
<g><path style="opacity:0.968" fill="#8c9298" d="M 335.5,232.5 C 320.798,232.216 306.131,232.55 291.5,233.5C 281.898,235.218 273.398,239.218 266,245.5C 265.809,247.708 265.309,249.708 264.5,251.5C 264.66,249.801 264.494,248.134 264,246.5C 259.833,250 255.667,253.5 251.5,257C 241.884,257.021 239.051,252.521 243,243.5C 247.001,240.665 250.501,237.332 253.5,233.5C 261.252,228.626 269.252,224.292 277.5,220.5C 282.446,219.181 287.446,218.014 292.5,217C 301.343,216.83 310.01,216.33 318.5,215.5C 364.283,219.514 395.116,199.847 411,156.5C 412.65,150.568 413.983,144.568 415,138.5C 416.671,122.124 418.671,105.791 421,89.5C 425.107,66.4472 435.607,46.9472 452.5,31C 461.521,28.6857 465.687,32.1857 465,41.5C 449.837,57.1584 440.504,75.8251 437,97.5C 435.177,115.57 432.844,133.57 430,151.5C 422.487,183.39 404.653,207.557 376.5,224C 363.545,230.224 349.878,233.058 335.5,232.5 Z"/></g>
<g><path style="opacity:0.984" fill="#ccd2d7" d="M 307.5,89.5 C 292.167,85.5 276.833,81.5 261.5,77.5C 263.169,69.4913 264.836,61.4913 266.5,53.5C 271.439,40.0238 281.105,34.1905 295.5,36C 310.434,40.6824 316.601,50.849 314,66.5C 311.963,74.3287 309.797,81.9954 307.5,89.5 Z"/></g>
<g><path style="opacity:0.982" fill="#ccd2d7" d="M 250.5,113.5 C 247.698,122.705 245.198,132.038 243,141.5C 235.652,149.015 228.152,156.348 220.5,163.5C 219.914,163.291 219.414,162.957 219,162.5C 223.01,126.52 209.51,99.5198 178.5,81.5C 183.223,74.1407 189.89,69.8074 198.5,68.5C 202.074,68.9693 205.408,70.1359 208.5,72C 222.368,86.0352 236.368,99.8686 250.5,113.5 Z"/></g>
<g><path style="opacity:0.991" fill="#e5e9ef" d="M 266.5,53.5 C 264.836,61.4913 263.169,69.4913 261.5,77.5C 276.833,81.5 292.167,85.5 307.5,89.5C 299.731,119.742 291.731,149.908 283.5,180C 294.672,192.339 306.339,204.172 318.5,215.5C 310.01,216.33 301.343,216.83 292.5,217C 287.446,218.014 282.446,219.181 277.5,220.5C 269.854,213.188 262.187,205.855 254.5,198.5C 236.014,217.486 217.347,236.319 198.5,255C 213.167,269.667 227.833,284.333 242.5,299C 243.167,299.667 243.833,299.667 244.5,299C 262.667,280.833 280.833,262.667 299,244.5C 299.667,243.833 299.667,243.167 299,242.5C 295.888,239.899 293.388,236.899 291.5,233.5C 306.131,232.55 320.798,232.216 335.5,232.5C 372.833,270.167 410.167,307.833 447.5,345.5C 433.833,358.5 420.5,371.833 407.5,385.5C 385.035,363.535 362.701,341.368 340.5,319C 339.833,318.333 339.167,318.333 338.5,319C 332,325.5 325.5,332 319,338.5C 318.333,339.167 318.333,339.833 319,340.5C 341.368,362.701 363.535,385.035 385.5,407.5C 371.833,420.5 358.5,433.833 345.5,447.5C 290.535,393.035 235.701,338.368 181,283.5C 150.594,291.801 120.094,299.801 89.5,307.5C 85.2964,292.222 81.2964,276.889 77.5,261.5C 69.7754,263.245 62.1087,265.245 54.5,267.5C 53.8933,267.376 53.56,267.043 53.5,266.5C 73.3152,260.563 93.3152,255.23 113.5,250.5C 122.814,248.004 132.148,245.504 141.5,243C 149.015,235.652 156.348,228.152 163.5,220.5C 127.469,223.485 100.136,209.485 81.5,178.5C 69.564,148.981 73.7307,121.981 94,97.5C 118.731,74.3878 146.897,69.0544 178.5,81.5C 209.51,99.5198 223.01,126.52 219,162.5C 219.414,162.957 219.914,163.291 220.5,163.5C 228.152,156.348 235.652,149.015 243,141.5C 245.198,132.038 247.698,122.705 250.5,113.5C 255.231,93.2346 260.565,73.2346 266.5,53.5 Z"/></g>
<g><path style="opacity:1" fill="#86d2af" d="M 159.5,104.5 C 176.33,104.495 184.497,112.829 184,129.5C 182.667,132.167 181.333,134.833 180,137.5C 165.833,151.667 151.667,165.833 137.5,180C 123.938,188.142 113.438,185.309 106,171.5C 103.831,165.686 104.165,160.019 107,154.5C 121.471,139.029 136.304,123.862 151.5,109C 154.391,107.726 157.058,106.226 159.5,104.5 Z"/></g>
<g><path style="opacity:0.985" fill="#ccd2d7" d="M 81.5,178.5 C 100.136,209.485 127.469,223.485 163.5,220.5C 156.348,228.152 149.015,235.652 141.5,243C 132.148,245.504 122.814,248.004 113.5,250.5C 98.8395,235.673 84.3395,220.673 70,205.5C 67.4863,198.609 68.4863,192.275 73,186.5C 75.7028,183.629 78.5361,180.962 81.5,178.5 Z"/></g>
<g><path style="opacity:1" fill="#ccd1d6" d="M 277.5,220.5 C 269.252,224.292 261.252,228.626 253.5,233.5C 241.663,232.23 234.996,237.397 233.5,249C 234.511,260.013 240.511,265.347 251.5,265C 258.753,263.248 263.086,258.748 264.5,251.5C 265.309,249.708 265.809,247.708 266,245.5C 273.398,239.218 281.898,235.218 291.5,233.5C 293.388,236.899 295.888,239.899 299,242.5C 299.667,243.167 299.667,243.833 299,244.5C 280.833,262.667 262.667,280.833 244.5,299C 243.833,299.667 243.167,299.667 242.5,299C 227.833,284.333 213.167,269.667 198.5,255C 217.347,236.319 236.014,217.486 254.5,198.5C 262.187,205.855 269.854,213.188 277.5,220.5 Z"/></g>
<g><path style="opacity:1" fill="#ee5d40" d="M 253.5,233.5 C 250.501,237.332 247.001,240.665 243,243.5C 239.051,252.521 241.884,257.021 251.5,257C 255.667,253.5 259.833,250 264,246.5C 264.494,248.134 264.66,249.801 264.5,251.5C 263.086,258.748 258.753,263.248 251.5,265C 240.511,265.347 234.511,260.013 233.5,249C 234.996,237.397 241.663,232.23 253.5,233.5 Z"/></g>
<g><path style="opacity:0.985" fill="#ccd2d7" d="M 89.5,307.5 C 77.7171,312.357 65.3838,314.524 52.5,314C 39.3469,308.533 33.8469,298.7 36,284.5C 38.6542,275.347 44.4875,269.347 53.5,266.5C 53.56,267.043 53.8933,267.376 54.5,267.5C 62.1087,265.245 69.7754,263.245 77.5,261.5C 81.2964,276.889 85.2964,292.222 89.5,307.5 Z"/></g>
<g><path style="opacity:0.979" fill="#ccd2d7" d="M 447.5,345.5 C 456.865,353.698 465.365,362.698 473,372.5C 479.321,391.24 473.488,404.407 455.5,412C 445.764,414.322 436.764,412.655 428.5,407C 421.297,399.965 414.297,392.798 407.5,385.5C 420.5,371.833 433.833,358.5 447.5,345.5 Z"/></g>
<g><path style="opacity:0.982" fill="#ccd1d7" d="M 385.5,407.5 C 395.242,415.74 403.742,425.073 411,435.5C 416.59,453.149 411.09,465.982 394.5,474C 384.87,476.672 375.87,475.339 367.5,470C 359.964,462.632 352.631,455.132 345.5,447.5C 358.5,433.833 371.833,420.5 385.5,407.5 Z"/></g>
</svg>
