<?xml version="1.0" encoding="UTF-8"?>
<!DOCTYPE svg PUBLIC "-//W3C//DTD SVG 1.1//EN" "http://www.w3.org/Graphics/SVG/1.1/DTD/svg11.dtd">
<svg xmlns="http://www.w3.org/2000/svg" version="1.1" width="512px" height="512px" style="shape-rendering:geometricPrecision; text-rendering:geometricPrecision; image-rendering:optimizeQuality; fill-rule:evenodd; clip-rule:evenodd" xmlns:xlink="http://www.w3.org/1999/xlink">
<g><path style="opacity:0.987" fill="#e69e45" d="M 151.5,111.5 C 146.167,111.5 140.833,111.5 135.5,111.5C 116.685,104.899 108.852,91.5655 112,71.5C 114.646,61.69 120.48,54.5234 129.5,50C 146.226,43.9143 160.059,47.7477 171,61.5C 179.625,79.2996 176.458,94.4663 161.5,107C 158.107,108.62 154.774,110.12 151.5,111.5 Z"/></g>
<g><path style="opacity:0.987" fill="#e69e45" d="M 407.5,159.5 C 402.167,159.5 396.833,159.5 391.5,159.5C 372.685,152.899 364.852,139.566 368,119.5C 370.646,109.69 376.48,102.523 385.5,98C 402.226,91.9143 416.059,95.7477 427,109.5C 435.625,127.3 432.458,142.466 417.5,155C 414.107,156.62 410.774,158.12 407.5,159.5 Z"/></g>
<g><path style="opacity:0.995" fill="#2462b3" d="M 135.5,111.5 C 140.833,111.5 146.167,111.5 151.5,111.5C 159.507,111.334 167.507,111.5 175.5,112C 188,115.167 195.833,123 199,135.5C 199.833,161.506 199.667,187.506 198.5,213.5C 191.833,216.833 185.167,220.167 178.5,223.5C 175.377,244.73 173.044,266.063 171.5,287.5C 168.923,303.263 167.256,319.263 166.5,335.5C 151.167,335.5 135.833,335.5 120.5,335.5C 119.624,320.411 118.291,305.411 116.5,290.5C 114.165,268.156 111.498,245.823 108.5,223.5C 101.833,220.167 95.1667,216.833 88.5,213.5C 87.3335,187.506 87.1668,161.506 88,135.5C 91.1667,123 99,115.167 111.5,112C 119.493,111.5 127.493,111.334 135.5,111.5 Z"/></g>
<g><path style="opacity:0.996" fill="#2970cc" d="M 391.5,159.5 C 396.833,159.5 402.167,159.5 407.5,159.5C 415.507,159.334 423.507,159.5 431.5,160C 444,163.167 451.833,171 455,183.5C 455.833,209.506 455.667,235.506 454.5,261.5C 447.833,264.833 441.167,268.167 434.5,271.5C 431.377,292.73 429.044,314.063 427.5,335.5C 424.923,351.263 423.256,367.263 422.5,383.5C 407.167,383.5 391.833,383.5 376.5,383.5C 375.542,364.575 373.542,345.909 370.5,327.5C 369.422,308.718 367.422,290.051 364.5,271.5C 357.833,268.167 351.167,264.833 344.5,261.5C 343.333,235.506 343.167,209.506 344,183.5C 347.167,171 355,163.167 367.5,160C 375.493,159.5 383.493,159.334 391.5,159.5 Z"/></g>
<g><path style="opacity:0.994" fill="#adccf6" d="M 171.5,287.5 C 209.29,288.108 243.957,298.608 275.5,319C 281.65,323.983 287.316,329.483 292.5,335.5C 318.054,328.744 344.054,326.078 370.5,327.5C 373.542,345.909 375.542,364.575 376.5,383.5C 391.833,383.5 407.167,383.5 422.5,383.5C 423.256,367.263 424.923,351.263 427.5,335.5C 444.861,339.681 460.861,346.848 475.5,357C 498.059,373.597 501.559,393.43 486,416.5C 472.795,429.36 457.295,438.527 439.5,444C 397.468,456.211 354.801,458.877 311.5,452C 289.634,448.601 269.134,441.434 250,430.5C 208.2,447.107 165.033,451.941 120.5,445C 92.5011,441.227 66.8344,431.56 43.5,416C 31.1664,407.155 22.3331,395.655 17,381.5C 12.4814,363.578 16.148,347.578 28,333.5C 41.9141,318.789 58.4141,307.955 77.5,301C 90.2252,296.402 103.225,292.902 116.5,290.5C 118.291,305.411 119.624,320.411 120.5,335.5C 135.833,335.5 151.167,335.5 166.5,335.5C 167.256,319.263 168.923,303.263 171.5,287.5 Z"/></g>
<g><path style="opacity:1" fill="#d8575d" d="M 288.5,336.5 C 289.873,336.343 291.207,336.51 292.5,337C 307.628,359.033 306.795,380.533 290,401.5C 278.916,413.747 265.75,423.08 250.5,429.5C 236.623,422.071 227.79,410.737 224,395.5C 223.19,390.743 223.524,386.076 225,381.5C 229.616,370.217 237.116,361.384 247.5,355C 260.494,347.166 274.161,341 288.5,336.5 Z"/></g>
</svg>
